<?xml version="1.0" encoding="UTF-8"?>
<svg width="16px" height="16px" viewBox="0 0 16 16" version="1.1" xmlns="http://www.w3.org/2000/svg" xmlns:xlink="http://www.w3.org/1999/xlink">
    <title>Icons / Account</title>
    <g id="Icons-/-Account" stroke="none" stroke-width="1" fill="none" fill-rule="evenodd">
        <g id="Group" transform="translate(2.000000, 0.000000)" fill="#333333" fill-rule="nonzero">
            <path d="M6,0 C8.209139,0 10,1.790861 10,4 C10,6.209139 8.209139,8 6,8 C3.790861,8 2,6.209139 2,4 C2,1.790861 3.790861,0 6,0 Z M6,1 C4.34314575,1 3,2.34314575 3,4 C3,5.65685425 4.34314575,7 6,7 C7.65685425,7 9,5.65685425 9,4 C9,2.34314575 7.65685425,1 6,1 Z" id="Oval"></path>
            <polygon id="Path-16" points="1.808132 9.5 10.191868 9.5 12.5 11.5773188 12.5 16 11.5 16 11.5 12.023 9.808 10.5 2.191 10.5 0.5 12.022 0.5 16 -0.5 16 -0.5 11.5773188"></polygon>
        </g>
    </g>
</svg>