<?xml version="1.0" encoding="UTF-8"?>
<svg width="16px" height="16px" viewBox="0 0 16 16" version="1.1" xmlns="http://www.w3.org/2000/svg" xmlns:xlink="http://www.w3.org/1999/xlink">
    <title>Icons / Favorites</title>
    <g id="Icons-/-Favorites" stroke="none" stroke-width="1" fill="none" fill-rule="evenodd">
        <g id="Group-5" transform="translate(0.000000, 1.000000)" fill="#333333" fill-rule="nonzero">
            <path d="M12.13999,0.00733343981 C10.9813498,-0.0640927312 9.83798605,0.389032664 9.01348085,1.2443901 L8.85520529,1.41847091 C8.4982418,1.83350641 8.22815765,2.30931648 8.05453673,2.8216659 L7.99905923,3.0004742 L7.94945108,2.84161226 C7.39451419,1.19356217 5.87465526,0.0053197931 4.08717439,0.0053197931 L3.88629702,0.00644933193 C1.71815962,0.131016036 0,2.12843728 0,4.45115312 C0,6.18997776 0.731145398,7.83736159 2.00829579,8.97029797 L8.00070948,14.2757372 L12.3162359,10.4498863 L12.3163225,10.4606302 L13.9931555,8.96996712 C15.2715027,7.83335761 16.0023423,6.184659 16,4.44715284 C16,2.11856656 14.2817246,0.123349803 12.13999,0.00733343981 Z M12.0820797,0.946726664 C13.7109428,1.03498412 15.0588243,2.60010829 15.0588243,4.44778712 L15.0527817,4.70636257 C14.9866359,6.0803094 14.380569,7.36610942 13.3678087,8.26657921 L13.2574124,8.36423918 L13.257499,8.3588628 L8.00000041,13.0174159 L2.6325285,8.26592126 C1.55834017,7.31302845 0.941176519,5.92246316 0.941176519,4.45115312 C0.941176519,2.60915024 2.29032321,1.04071956 3.91609085,0.946835617 L4.08983814,0.946488773 C5.81225324,0.946496312 7.22558436,2.40448356 7.23317643,4.20741679 L7.23514971,4.67602344 L8.76688212,4.67602344 L8.76790537,4.20646066 C8.76980756,3.33355385 9.09757583,2.51533965 9.69163937,1.89701071 C10.3256718,1.23925432 11.2008748,0.892403427 12.0820797,0.946726664 Z" id="Stroke-3"></path>
        </g>
    </g>
</svg>