<?xml version="1.0" encoding="UTF-8"?>
<svg width="165px" height="35px" viewBox="0 0 165 35" version="1.1" xmlns="http://www.w3.org/2000/svg" xmlns:xlink="http://www.w3.org/1999/xlink">
    <title>Logo / Blue / LG</title>
    <g id="Logo-/-Blue-/-LG" stroke="none" stroke-width="1" fill="none" fill-rule="evenodd">
        <g id="Celebrity-Cruises®_Blue" fill="#002859">
            <g id="Group-4">
                <polyline id="Fill-1" points="62.1747748 35.0018018 78.8234234 16.7279279 63.7603604 0 75.1369369 0 84.5810811 10.3954955 94.045045 0 105.451351 0 90.3585586 16.7378378 106.947748 35.0018018 95.263964 35.0018018 84.590991 23.1396396 73.8882883 35.0018018 62.1747748 35.0018018"></polyline>
                <path d="M8.1954955,14.8648649 C7.97447992,13.5075806 6.76389437,12.5365456 5.39099099,12.6153153 C2.98288288,12.6153153 1.97207207,14.7459459 1.97207207,16.9162162 C1.97207207,19.0864865 2.96306306,21.2171171 5.39099099,21.2171171 C6.16721968,21.2067183 6.90720134,20.8869708 7.44674584,20.3288213 C7.98629034,19.7706718 8.28077734,19.0202794 8.26486486,18.2441441 L10.1873874,18.2441441 C10.1722772,19.4901109 9.65429857,20.6770956 8.75109332,21.5355139 C7.84788807,22.3939321 6.63611594,22.8509253 5.39099099,22.8027027 C2.02162162,22.8027027 0,20.1171171 0,16.8567568 C0,13.5963964 1.98198198,10.9108108 5.39099099,10.9108108 C7.93783784,10.9108108 9.92972973,12.3279279 10.1675676,14.7657658 L8.18558559,14.7657658" id="Fill-3"></path>
            </g>
            <path d="M17.1837838,17.7684685 C17.2376701,16.9852597 16.8503871,16.2373513 16.1796705,15.8293575 C15.5089539,15.4213638 14.6667217,15.4213638 13.9960051,15.8293575 C13.3252885,16.2373513 12.9380055,16.9852597 12.9918919,17.7684685 L17.1837838,17.7684685 Z M12.981982,18.9576577 C12.910829,19.5765442 13.1090556,20.1961653 13.526215,20.6588329 C13.9433743,21.1215005 14.5392373,21.382597 15.1621622,21.3756757 C16.0621637,21.4541045 16.8921399,20.8855707 17.1441441,20.018018 L18.8486486,20.018018 C18.4571527,21.7114784 16.9079738,22.8806701 15.1720721,22.7927928 C12.6252252,22.7927928 11.2081081,20.9990991 11.2081081,18.4918919 C11.1258763,17.3855034 11.5052856,16.2944286 12.256236,15.47777 C13.0071863,14.6611115 14.0626829,14.1917262 15.1720721,14.1810811 C16.35009,14.2129647 17.4549071,14.7597058 18.1947934,15.676936 C18.9346796,16.5941661 19.2352424,17.7896613 19.0171171,18.9477477 L12.981982,18.9576577 Z" id="Fill-5"></path>
            <polygon id="Fill-6" points="20.3846847 22.5747748 22.1783784 22.5747748 22.1783784 11.2873874 20.3846847 11.2873874"></polygon>
            <path d="M29.4918919,17.7684685 C29.5457783,16.9852597 29.1584953,16.2373513 28.4877786,15.8293575 C27.817062,15.4213638 26.9748299,15.4213638 26.3041132,15.8293575 C25.6333966,16.2373513 25.2461136,16.9852597 25.3,17.7684685 L29.4918919,17.7684685 Z M25.3,18.9576577 C25.2286083,19.5782829 25.4281205,20.1995727 25.8475004,20.6625985 C26.2668804,21.1256243 26.8654491,21.3854735 27.4900901,21.3756757 C28.3911438,21.4581285 29.22344,20.8880056 29.4720721,20.018018 L31.1765766,20.018018 C30.7917314,21.720054 29.2321591,22.8939256 27.4900901,22.7927928 C24.9333333,22.7927928 23.5261261,20.9990991 23.5261261,18.4918919 C23.3252517,16.9122346 24.0891388,15.3657111 25.4656716,14.5651954 C26.8422043,13.7646798 28.5641442,13.8655833 29.8377584,14.8213942 C31.1113727,15.777205 31.6894033,17.4023632 31.3054054,18.9477477 L25.3,18.9576577 Z" id="Fill-7"></path>
            <path d="M36.6567568,15.6081081 C35.1405405,15.6081081 34.3675676,16.7675676 34.3675676,18.5018018 C34.3675676,20.236036 35.2,21.3756757 36.6567568,21.3756757 C38.2918919,21.3756757 38.9063063,19.9189189 38.9063063,18.5018018 C38.9063063,17.0846847 38.1333333,15.6081081 36.6567568,15.6081081 Z M32.6927928,11.2873874 L34.4765766,11.2873874 L34.4765766,15.4693694 L34.4765766,15.4693694 C35.0270746,14.6757647 35.9287832,14.1990418 36.8945946,14.190991 C39.4711712,14.190991 40.7198844,16.172973 40.7198844,18.5315315 C40.7297297,20.7315315 39.6,22.7927928 37.1918919,22.7927928 C36.0685996,22.9301785 34.9673696,22.4046793 34.3675676,21.445045 L34.3675676,21.445045 L34.3675676,22.5648649 L32.6432432,22.5648649 L32.6432432,11.2873874 L32.6927928,11.2873874 Z" id="Fill-8"></path>
            <path d="M42.2954955,14.409009 L43.9900901,14.409009 L43.9900901,15.9846847 L43.9900901,15.9846847 C44.3379737,14.9499347 45.2876706,14.2366769 46.3783784,14.190991 C46.6028104,14.1778347 46.8278203,14.1778347 47.0522523,14.190991 L47.0522523,15.9252252 C46.796314,15.8841048 46.5382361,15.8576352 46.2792793,15.8459459 C45.0504505,15.8459459 44.0693694,16.8369369 44.0693694,18.6504505 L44.0693694,22.5351351 L42.2954955,22.5351351 L42.2954955,14.409009" id="Fill-9"></path>
            <path d="M48.4693694,22.5747748 L50.272973,22.5747748 L50.272973,14.409009 L48.4693694,14.409009 L48.4693694,22.5747748 Z M48.4693694,13.0018018 L50.272973,13.0018018 L50.272973,11.2873874 L48.4693694,11.2873874 L48.4693694,13.0018018 Z" id="Fill-10"></path>
            <path d="M51.7990991,14.409009 L53.1567568,14.409009 L53.1567568,11.9612613 L54.9504505,11.9612613 L54.9504505,14.409009 L56.5855856,14.409009 L56.5855856,15.7468468 L54.9504505,15.7468468 L54.9504505,20.1072072 C54.9504505,20.8504505 54.9504505,21.2369369 55.8126126,21.2369369 C56.0656647,21.2488042 56.3191387,21.2254579 56.5657658,21.1675676 L56.5657658,22.5648649 C56.1693694,22.5648649 55.7927928,22.6540541 55.4063063,22.6540541 C53.5234234,22.6540541 53.1765766,21.9306306 53.1567568,20.572973 L53.1567568,15.7468468 L51.7990991,15.7468468 L51.7990991,14.409009" id="Fill-11"></path>
            <path d="M57.636036,14.409009 L59.618018,14.409009 L61.7387387,20.5036036 L61.7387387,20.5036036 L63.8099099,14.409009 L65.7027027,14.409009 L62.5315315,23.0207207 C61.9468468,24.4873874 61.5405405,25.8153153 59.6477477,25.8153153 C59.2341803,25.8286835 58.8201874,25.8121238 58.409009,25.7657658 L58.409009,24.2 C58.6893493,24.2612437 58.9745314,24.2977205 59.2612613,24.309009 C60.0936937,24.309009 60.2522523,23.872973 60.5198198,23.1693694 L60.718018,22.545045 L57.636036,14.409009" id="Fill-12"></path>
            <path d="M111.585586,14.8648649 C111.355822,13.508527 110.1448,12.5405624 108.771171,12.6153153 C106.363063,12.6153153 105.352252,14.7459459 105.352252,16.9162162 C105.352252,19.0864865 106.343243,21.2171171 108.771171,21.2171171 C110.525225,21.2171171 111.486486,19.8990991 111.645045,18.2441441 L113.567568,18.2441441 C113.552457,19.4901109 113.034479,20.6770956 112.131274,21.5355139 C111.228068,22.3939321 110.016296,22.8509253 108.771171,22.8027027 C105.401802,22.8027027 103.38018,20.1171171 103.38018,16.8567568 C103.38018,13.5963964 105.362162,10.9108108 108.771171,10.9108108 C111.308108,10.9108108 113.30991,12.3279279 113.547748,14.7657658 L111.565766,14.7657658" id="Fill-13"></path>
            <path d="M115.182883,14.409009 L116.877477,14.409009 L116.877477,15.9846847 L116.877477,15.9846847 C117.221668,14.9514774 118.167838,14.2379077 119.255856,14.190991 C119.483586,14.1775604 119.71191,14.1775604 119.93964,14.190991 L119.93964,15.9252252 C119.683571,15.8851018 119.425549,15.8586379 119.166667,15.8459459 C117.937838,15.8459459 116.956757,16.8369369 116.956757,18.6504505 L116.956757,22.5351351 L115.153153,22.5351351 L115.153153,14.409009" id="Fill-14"></path>
            <path d="M128.590991,22.5747748 L126.836937,22.5747748 L126.836937,21.4351351 L126.836937,21.4351351 C126.347662,22.2744474 125.449889,22.7912332 124.478378,22.7927928 C122.357658,22.7927928 121.445946,21.7126126 121.445946,19.581982 L121.445946,14.409009 L123.24955,14.409009 L123.24955,19.4135135 C123.24955,20.8504505 123.824324,21.3954955 124.805405,21.3954955 C126.291892,21.3954955 126.787387,20.4045045 126.787387,19.1657658 L126.787387,14.409009 L128.581081,14.409009 L128.581081,22.5747748" id="Fill-15"></path>
            <path d="M130.711712,22.5747748 L132.505405,22.5747748 L132.505405,14.409009 L130.711712,14.409009 L130.711712,22.5747748 Z M130.711712,13.0018018 L132.505405,13.0018018 L132.505405,11.2873874 L130.711712,11.2873874 L130.711712,13.0018018 Z" id="Fill-16"></path>
            <path d="M136.122523,19.9486486 C136.211712,20.9990991 136.994595,21.3756757 137.955856,21.3756757 C138.63964,21.3756757 139.818919,21.2369369 139.769369,20.2954955 C139.71982,19.3540541 138.411712,19.245045 137.103604,18.9378378 C135.795495,18.6306306 134.497297,18.1846847 134.497297,16.5297297 C134.497297,14.8747748 136.41982,14.190991 137.896396,14.190991 C139.571171,14.190991 141.077477,14.8846847 141.305405,16.6882883 L139.422523,16.6882883 C139.273874,15.8459459 138.56036,15.6081081 137.767568,15.6081081 C137.252252,15.6081081 136.290991,15.7369369 136.290991,16.4504505 C136.290991,17.3324324 137.618919,17.4414414 138.936937,17.7585586 C140.254955,18.0756757 141.572973,18.5315315 141.572973,20.1468468 C141.572973,22.1288288 139.590991,22.8027027 137.936036,22.8027027 C135.874775,22.8027027 134.348649,21.8810811 134.318919,19.9486486 L136.122523,19.9486486" id="Fill-17"></path>
            <path d="M148.609009,17.7684685 C148.662895,16.9852597 148.275612,16.2373513 147.604896,15.8293575 C146.934179,15.4213638 146.091947,15.4213638 145.42123,15.8293575 C144.750514,16.2373513 144.363231,16.9852597 144.417117,17.7684685 L148.609009,17.7684685 Z M144.417117,18.9576577 C144.349049,19.5775754 144.549717,20.1969653 144.968375,20.6591949 C145.387034,21.1214245 145.983598,21.3822363 146.607207,21.3756757 C147.507209,21.4541045 148.337185,20.8855707 148.589189,20.018018 L150.293694,20.018018 C149.901567,21.7153337 148.346755,22.8856222 146.607207,22.7927928 C144.06036,22.7927928 142.643243,20.9990991 142.643243,18.4918919 C142.643243,16.1630631 144.14955,14.1810811 146.607207,14.1810811 C147.786978,14.2101175 148.894514,14.7556492 149.63661,15.6732527 C150.378705,16.5908562 150.680523,17.7879979 150.462162,18.9477477 L144.417117,18.9576577 Z" id="Fill-18"></path>
            <path d="M153.534234,19.9486486 C153.633333,20.9990991 154.416216,21.3756757 155.367568,21.3756757 C156.051351,21.3756757 157.230631,21.2369369 157.190991,20.2954955 C157.151351,19.3540541 155.833333,19.245045 154.525225,18.9378378 C153.217117,18.6306306 151.909009,18.1846847 151.909009,16.5297297 C151.909009,14.8747748 153.831532,14.190991 155.308108,14.190991 C156.982883,14.190991 158.489189,14.8846847 158.717117,16.6882883 L156.844144,16.6882883 C156.685586,15.8459459 155.972072,15.6081081 155.189189,15.6081081 C154.663964,15.6081081 153.702703,15.7369369 153.702703,16.4504505 C153.702703,17.3324324 155.030631,17.4414414 156.348649,17.7585586 C157.666667,18.0756757 158.984685,18.5315315 158.984685,20.1468468 C158.984685,22.1288288 157.002703,22.8027027 155.347748,22.8027027 C153.296396,22.8027027 151.76036,21.8810811 151.740541,19.9486486 L153.534234,19.9486486" id="Fill-19"></path>
            <path d="M162.383784,16.0271184 L162.651351,16.0271184 C162.988288,16.0271184 163.255856,15.9081995 163.255856,15.6009923 C163.255856,15.2937851 163.097297,15.1748662 162.651351,15.1748662 L162.383784,15.1748662 L162.383784,16.0271184 Z M162.383784,17.3847761 L161.977477,17.3847761 L161.977477,14.9271184 C162.206727,14.8886275 162.438715,14.8687428 162.671171,14.867659 C162.938871,14.8500694 163.205445,14.9158475 163.434234,15.0559473 C163.61498,15.21091 163.695511,15.4529336 163.643644,15.685296 C163.591778,15.9176583 163.415972,16.1024639 163.186486,16.1658572 L163.186486,16.1658572 C163.394595,16.2154067 163.533333,16.403695 163.592793,16.7703617 C163.608089,16.9787738 163.65834,17.1831274 163.741441,17.3748662 L163.335135,17.3748662 C163.242431,17.1783839 163.185387,16.9669881 163.166667,16.7505419 C163.162933,16.6180372 163.101707,16.4937204 162.998944,16.4099875 C162.89618,16.3262546 162.76206,16.2913998 162.631532,16.3145058 L162.373874,16.3145058 L162.383784,17.3847761 Z" id="Fill-20"></path>
            <path d="M162.77027,13.8738739 C164.001716,13.8738739 165,14.8721579 165,16.1036036 C165,17.3350493 164.001716,18.3333333 162.77027,18.3333333 C161.538825,18.3333333 160.540541,17.3350493 160.540541,16.1036036 C160.540541,14.8721579 161.538825,13.8738739 162.77027,13.8738739 Z M162.77027,14.3693694 C161.812479,14.3693694 161.036036,15.1458125 161.036036,16.1036036 C161.036036,17.0613947 161.812479,17.8378378 162.77027,17.8378378 C163.728061,17.8378378 164.504505,17.0613947 164.504505,16.1036036 C164.504505,15.1458125 163.728061,14.3693694 162.77027,14.3693694 Z" id="Oval" fill-rule="nonzero"></path>
        </g>
    </g>
</svg>