<?xml version="1.0" encoding="UTF-8"?>
<svg width="16px" height="16px" viewBox="0 0 16 16" version="1.1" xmlns="http://www.w3.org/2000/svg" xmlns:xlink="http://www.w3.org/1999/xlink">
    <title>Icons / Phone</title>
    <g id="Icons-/-Phone" stroke="none" stroke-width="1" fill="none" fill-rule="evenodd">
        <path d="M5.40917712,0 L1.08191017,0 C0.624447326,0 0.228366107,0.331103558 0.156029638,0.78415828 C-0.128820112,2.57727628 -0.0276059027,4.39716672 0.492246521,6.2044515 C1.85837808,10.9520774 5.98106728,14.5130627 10.8574164,15.1378602 C12.3849123,15.3331041 13.8976498,15.2545363 15.348929,14.9157046 C15.731957,14.8263314 16.000527,14.4825369 16.000527,14.0903799 L16.000527,10.0084898 C16.000527,9.4627099 15.616337,8.993717 15.0819155,8.88237918 L11.534473,8.14446594 L11.3917678,8.12349043 C11.0110496,8.09009795 10.6337082,8.23550171 10.3735965,8.52270837 L8.90366531,10.1430783 L8.6448892,10.0121555 C7.44792107,9.37577292 6.42375079,8.45102 5.667537,7.3260105 L5.51448235,7.08895476 L7.0009442,5.52178742 C7.26957466,5.23893583 7.37854655,4.83980465 7.28984734,4.4596652 L6.44187369,0.821189916 C6.33038279,0.341440793 5.90210998,0.00169088581 5.40917712,0 Z M1.03104897,1.31527104 L1.08435621,0.940237096 L5.40756552,0.941178274 C5.46326357,0.941371781 5.5126487,0.980549128 5.52519247,1.03452535 L6.37326119,4.67340885 C6.38991593,4.74478637 6.3693531,4.82010181 6.31810818,4.8740597 L4.58689421,6.70129484 L4.5191233,7.25703248 C5.49742702,8.98274829 7.01366089,10.3523664 8.83223863,11.1474379 L9.36944661,11.0322686 L11.0710969,9.15461792 C11.1398299,9.07872533 11.2427632,9.04519849 11.3431831,9.06599975 L14.8900997,9.80380375 L14.9458044,9.82356986 C15.0145341,9.85918977 15.0593487,9.92966201 15.0593487,10.0084898 L15.0589712,14.0150857 L15.1350055,13.9991604 C13.7926285,14.3125666 12.3927633,14.3852721 10.9768882,14.2042955 C6.47445636,13.6274074 2.65934601,10.3320942 1.39673683,5.94423269 C0.952538702,4.39996267 0.838723553,2.84909007 1.03104897,1.31527104 Z" id="Stroke-1" fill="#333333" fill-rule="nonzero"></path>
    </g>
</svg>