<?xml version="1.0" encoding="UTF-8"?>
<svg width="16px" height="16px" viewBox="0 0 16 16" version="1.1" xmlns="http://www.w3.org/2000/svg" xmlns:xlink="http://www.w3.org/1999/xlink">
    <title>Icons / Search</title>
    <g id="Icons-/-Search" stroke="none" stroke-width="1" fill="none" fill-rule="evenodd">
        <path d="M5.5,0 C8.53756612,0 11,2.46243388 11,5.5 C11,8.53756612 8.53756612,11 5.5,11 C2.46243388,11 0,8.53756612 0,5.5 C0,2.46243388 2.46243388,0 5.5,0 Z M5.5,1 C3.01471863,1 1,3.01471863 1,5.5 C1,7.98528137 3.01471863,10 5.5,10 C7.98528137,10 10,7.98528137 10,5.5 C10,3.01471863 7.98528137,1 5.5,1 Z" id="Oval" fill="#333333" fill-rule="nonzero"></path>
        <polygon id="Line" fill="#333333" fill-rule="nonzero" points="9.77790452 10.3775534 10.4935537 9.67909352 15.2070545 14.5085946 14.4914054 15.2070545"></polygon>
    </g>
</svg>